HIERARCHY
ROOT Hips
{
	OFFSET -0.638470 1.435053 0.000000
	CHANNELS 6 Xposition Yposition Zposition Xrotation Yrotation Zrotation
	JOINT Bip01_Pelvis
	{
		OFFSET 0.000000 0.000000 0.000000
		CHANNELS 6 Xposition Yposition Zposition Xrotation Yrotation Zrotation
		JOINT BN_Tail_01
		{
			OFFSET -0.251828 0.158051 0.002214
			CHANNELS 6 Xposition Yposition Zposition Xrotation Yrotation Zrotation
			JOINT BN_Tail_02
			{
				OFFSET -0.055230 -0.292895 0.030037
				CHANNELS 6 Xposition Yposition Zposition Xrotation Yrotation Zrotation
				JOINT BN_Tail_03
				{
					OFFSET -0.063480 -0.295807 -0.008990
					CHANNELS 6 Xposition Yposition Zposition Xrotation Yrotation Zrotation
					JOINT BN_Tail_04
					{
						OFFSET -0.122834 -0.229411 -0.050920
						CHANNELS 6 Xposition Yposition Zposition Xrotation Yrotation Zrotation
						End Site
						{
							OFFSET 0.147010 -0.218160 -0.033241
						}
					}
				}
			}
		}
		JOINT Bip01_Spine
		{
			OFFSET 0.231004 0.014426 0.000025
			CHANNELS 6 Xposition Yposition Zposition Xrotation Yrotation Zrotation
			JOINT Bip01_R_Thigh
			{
				OFFSET -0.228734 -0.014440 0.259823
				CHANNELS 6 Xposition Yposition Zposition Xrotation Yrotation Zrotation
				JOINT Bip01_R_Calf
				{
					OFFSET 0.149708 -0.688047 0.023072
					CHANNELS 6 Xposition Yposition Zposition Xrotation Yrotation Zrotation
					JOINT Bip01_R_Foot
					{
						OFFSET -0.223912 -0.555148 -0.049854
						CHANNELS 6 Xposition Yposition Zposition Xrotation Yrotation Zrotation
						JOINT Bip01_R_Toe0
						{
							OFFSET 0.205156 -0.190076 0.052833
							CHANNELS 6 Xposition Yposition Zposition Xrotation Yrotation Zrotation
							End Site
							{
								OFFSET 0.000018 0.284621 0.000147
							}
						}
					}
				}
			}
			JOINT Bip01_L_Thigh
			{
				OFFSET -0.233275 -0.014388 -0.259860
				CHANNELS 6 Xposition Yposition Zposition Xrotation Yrotation Zrotation
				JOINT Bip01_L_Calf
				{
					OFFSET 0.103196 -0.696667 -0.018948
					CHANNELS 6 Xposition Yposition Zposition Xrotation Yrotation Zrotation
					JOINT Bip01_L_Foot
					{
						OFFSET -0.245133 -0.546127 0.049665
						CHANNELS 6 Xposition Yposition Zposition Xrotation Yrotation Zrotation
						JOINT Bip01_L_Toe0
						{
							OFFSET 0.205140 -0.190098 -0.052814
							CHANNELS 6 Xposition Yposition Zposition Xrotation Yrotation Zrotation
							End Site
							{
								OFFSET 0.000006 0.284621 -0.000316
							}
						}
					}
				}
			}
			JOINT Bip01_Spine1
			{
				OFFSET 0.419549 0.010961 -0.013086
				CHANNELS 6 Xposition Yposition Zposition Xrotation Yrotation Zrotation
				JOINT Bip01_Spine2
				{
					OFFSET 0.408348 0.028529 -0.012770
					CHANNELS 6 Xposition Yposition Zposition Xrotation Yrotation Zrotation
					JOINT Bip01_Neck
					{
						OFFSET 0.338811 0.285814 0.004795
						CHANNELS 6 Xposition Yposition Zposition Xrotation Yrotation Zrotation
						JOINT Bip01_Head
						{
							OFFSET 0.358737 0.023694 0.007412
							CHANNELS 6 Xposition Yposition Zposition Xrotation Yrotation Zrotation
							JOINT BN_Eyebrow_L
							{
								OFFSET 0.459204 -0.112929 -0.207704
								CHANNELS 6 Xposition Yposition Zposition Xrotation Yrotation Zrotation
								End Site
								{
									OFFSET 0.133228 0.345340 0.007912
								}
							}
							JOINT BN_Eyebrow_R
							{
								OFFSET 0.447722 -0.112095 0.231821
								CHANNELS 6 Xposition Yposition Zposition Xrotation Yrotation Zrotation
								End Site
								{
									OFFSET 0.133493 0.345321 -0.002241
								}
							}
							JOINT BN_Ear_L_01
							{
								OFFSET 0.142448 0.104846 -0.170427
								CHANNELS 6 Xposition Yposition Zposition Xrotation Yrotation Zrotation
								JOINT BN_Ear_L_02
								{
									OFFSET -0.083689 -0.238753 -0.034438
									CHANNELS 6 Xposition Yposition Zposition Xrotation Yrotation Zrotation
									End Site
									{
										OFFSET -0.126318 0.144229 -0.168625
									}
								}
							}
							JOINT BN_Mouth_01
							{
								OFFSET -0.020845 -0.180431 -0.000206
								CHANNELS 6 Xposition Yposition Zposition Xrotation Yrotation Zrotation
								End Site
								{
									OFFSET 0.245560 0.277011 0.006079
								}
							}
							JOINT BN_Ear_R_01
							{
								OFFSET 0.133367 0.105498 0.177239
								CHANNELS 6 Xposition Yposition Zposition Xrotation Yrotation Zrotation
								JOINT BN_Ear_R_02
								{
									OFFSET -0.074872 -0.240788 0.040107
									CHANNELS 6 Xposition Yposition Zposition Xrotation Yrotation Zrotation
									End Site
									{
										OFFSET 0.093503 -0.082871 -0.222672
									}
								}
							}
							JOINT BN_Nose_01
							{
								OFFSET 0.471273 -0.208616 0.012699
								CHANNELS 6 Xposition Yposition Zposition Xrotation Yrotation Zrotation
								JOINT BN_Nose_02
								{
									OFFSET 0.076379 -0.339505 0.013347
									CHANNELS 6 Xposition Yposition Zposition Xrotation Yrotation Zrotation
									JOINT BN_Nose_03
									{
										OFFSET -0.035108 -0.320643 -0.000054
										CHANNELS 6 Xposition Yposition Zposition Xrotation Yrotation Zrotation
										JOINT BN_Nose_04
										{
											OFFSET -0.120659 -0.262204 -0.017643
											CHANNELS 6 Xposition Yposition Zposition Xrotation Yrotation Zrotation
											JOINT BN_Nose_05
											{
												OFFSET -0.238823 -0.158587 -0.019394
												CHANNELS 6 Xposition Yposition Zposition Xrotation Yrotation Zrotation
												JOINT BN_Nose_06
												{
													OFFSET -0.151660 0.098345 -0.011572
													CHANNELS 6 Xposition Yposition Zposition Xrotation Yrotation Zrotation
													End Site
													{
														OFFSET -0.170805 -0.059338 -0.010550
													}
												}
											}
										}
									}
								}
							}
						}
						JOINT Bip01_R_Clavicle
						{
							OFFSET -0.389642 -0.069071 0.270815
							CHANNELS 6 Xposition Yposition Zposition Xrotation Yrotation Zrotation
							JOINT Bip01_R_UpperArm
							{
								OFFSET 0.297928 -0.399194 0.055021
								CHANNELS 6 Xposition Yposition Zposition Xrotation Yrotation Zrotation
								JOINT Bip01_R_Forearm
								{
									OFFSET -0.175741 -0.570802 0.016792
									CHANNELS 6 Xposition Yposition Zposition Xrotation Yrotation Zrotation
									JOINT Bip01_R_Hand
									{
										OFFSET 0.111535 -0.507633 -0.007184
										CHANNELS 6 Xposition Yposition Zposition Xrotation Yrotation Zrotation
										End Site
										{
											OFFSET -0.022081 0.004104 -0.519306
										}
									}
								}
							}
						}
						JOINT Bip01_L_Clavicle
						{
							OFFSET -0.383456 -0.067190 -0.279962
							CHANNELS 6 Xposition Yposition Zposition Xrotation Yrotation Zrotation
							JOINT Bip01_L_UpperArm
							{
								OFFSET 0.318955 -0.382331 -0.056872
								CHANNELS 6 Xposition Yposition Zposition Xrotation Yrotation Zrotation
								JOINT Bip01_L_Forearm
								{
									OFFSET -0.115345 -0.586063 0.014382
									CHANNELS 6 Xposition Yposition Zposition Xrotation Yrotation Zrotation
									JOINT Bip01_L_Hand
									{
										OFFSET 0.091957 -0.510185 0.037926
										CHANNELS 6 Xposition Yposition Zposition Xrotation Yrotation Zrotation
										End Site
										{
											OFFSET -0.022870 -0.010497 0.519182
										}
									}
								}
							}
						}
					}
				}
			}
		}
	}
}
MOTION
Frames: 4
Frame Time: 0.033333
-0.638470 1.433575 -0.000000 0.000000 0.000013 -0.000013 0.000000 -0.000000 0.000000 0.032013 3.245470 3.887253 -0.251828 0.158051 0.002214 0.000003 -0.000004 -0.000012 -0.055230 -0.292895 0.030037 -0.176313 0.032572 0.031381 -0.063480 -0.295808 -0.008990 -16.411061 8.310778 1.965397 -0.122834 -0.229411 -0.050920 -29.216520 33.097444 14.560766 0.231089 -0.001279 0.013137 -0.196907 -3.983503 -5.941704 -0.209828 -0.021900 0.262137 -0.295804 0.783617 1.390901 0.149708 -0.688047 0.023072 0.033558 0.001586 -0.168940 -0.223912 -0.555148 -0.049854 -0.191803 -0.001618 0.743479 0.205156 -0.190076 0.052833 0.000001 0.000005 -0.000001 -0.250851 -0.023285 -0.255942 0.580912 0.756788 3.023350 0.103196 -0.696667 -0.018948 -0.186957 -0.000458 -0.944704 -0.245133 -0.546127 0.049665 0.050936 -0.041409 -0.162595 0.205140 -0.190099 -0.052814 0.000000 0.000003 0.000000 0.419549 0.010961 -0.013086 0.153501 -0.257724 4.724329 0.408348 0.028529 -0.012770 -0.071697 1.797772 -4.513029 0.338811 0.285813 0.004795 -0.255177 1.154797 -0.248168 0.358737 0.023694 0.007412 0.374021 -0.530110 -2.217640 0.459207 -0.112916 -0.207700 0.629630 -0.242793 0.539738 0.447730 -0.112091 0.231815 -0.655884 0.243182 0.504508 0.142448 0.104846 -0.170427 -2.221029 -1.615016 -6.153327 -0.083689 -0.238753 -0.034438 0.113723 -24.735687 9.220122 -0.020845 -0.180430 -0.000206 0.031058 -0.010469 -0.470260 0.133367 0.105498 0.177239 -1.060203 3.539749 -10.982119 -0.074872 -0.240788 0.040107 -5.351671 4.696894 11.696834 0.471273 -0.208616 0.012699 -0.044741 0.163032 1.145287 0.076379 -0.339505 0.013347 -0.227012 0.011738 6.069339 -0.035108 -0.320643 -0.000054 -0.095012 -0.190711 3.479563 -0.120658 -0.262204 -0.017643 -0.560150 0.207148 4.927347 -0.238823 -0.158587 -0.019394 -0.815568 0.096590 11.955042 -0.151660 0.098344 -0.011572 -0.423183 0.068416 6.269576 -0.394880 -0.071295 0.262527 -0.986198 -1.324916 1.206202 0.297928 -0.399194 0.055021 2.586879 -0.759774 1.502610 -0.175741 -0.570802 0.016792 -0.150029 -0.004873 -1.815590 0.111535 -0.507633 -0.007184 -0.816179 0.048296 0.926437 -0.377271 -0.068201 -0.287998 1.177126 -1.383358 3.418953 0.318955 -0.382331 -0.056872 -0.843511 -0.332255 1.437284 -0.115345 -0.586063 0.014382 0.922697 -0.420979 -7.173548 0.091957 -0.510185 0.037926 -0.801636 0.179840 4.311708 
-0.638470 1.433668 -0.000000 0.000000 0.000013 -0.000013 -0.000000 -0.000000 0.000000 0.029099 3.273254 3.909597 -0.251828 0.158051 0.002214 0.000004 -0.000003 -0.000013 -0.055230 -0.292895 0.030037 0.188260 -0.035572 -0.008037 -0.063480 -0.295808 -0.008990 -16.305982 8.259527 1.950153 -0.122834 -0.229411 -0.050920 -29.662026 33.424244 14.868012 0.231077 -0.001432 0.013344 -0.196397 -4.044398 -5.919393 -0.209629 -0.021649 0.262116 -0.282717 0.783158 1.324897 0.149708 -0.688047 0.023072 0.022066 0.001056 -0.111093 -0.223912 -0.555148 -0.049854 -0.182092 -0.001477 0.705835 0.205156 -0.190076 0.052833 0.000001 0.000007 -0.000001 -0.251097 -0.023053 -0.255928 0.570271 0.760279 2.970075 0.103196 -0.696667 -0.018948 -0.187081 -0.000457 -0.945330 -0.245133 -0.546127 0.049665 0.050936 -0.041411 -0.162598 0.205140 -0.190099 -0.052814 0.000000 0.000005 0.000000 0.419549 0.010961 -0.013086 0.157324 -0.260489 4.845417 0.408348 0.028529 -0.012770 -0.067916 1.799300 -4.845162 0.338811 0.285814 0.004795 -0.256023 1.119143 0.169191 0.358737 0.023694 0.007412 0.442604 -0.513348 -2.509315 0.459207 -0.112916 -0.207700 0.339621 -0.134964 0.294709 0.447731 -0.112092 0.231815 -0.356890 0.135393 0.277638 0.142448 0.104846 -0.170427 -2.397803 -1.208778 -6.388521 -0.083689 -0.238753 -0.034438 0.241257 -24.687000 9.153457 -0.020845 -0.180431 -0.000206 0.037847 -0.010571 -0.770083 0.133367 0.105497 0.177239 -0.891425 3.132023 -11.225583 -0.074872 -0.240788 0.040107 -5.543835 4.635189 11.594133 0.471273 -0.208616 0.012699 -0.076152 0.195952 0.936344 0.076379 -0.339505 0.013347 -0.221224 0.011737 5.914877 -0.035108 -0.320643 -0.000054 -0.097030 -0.195098 3.558407 -0.120658 -0.262204 -0.017643 -0.572235 0.211319 5.013580 -0.238823 -0.158587 -0.019394 -0.832373 0.097571 12.191918 -0.151660 0.098344 -0.011572 -0.485241 0.074493 7.181111 -0.395204 -0.068526 0.262773 -1.000416 -1.291947 0.744219 0.297928 -0.399193 0.055021 2.614936 -0.742036 1.894414 -0.175741 -0.570802 0.016792 -0.167428 -0.005129 -2.026047 0.111535 -0.507633 -0.007184 -0.815901 0.047945 0.952647 -0.377927 -0.065485 -0.287762 1.218119 -1.321193 2.854771 0.318955 -0.382330 -0.056872 -0.913362 -0.364080 1.832408 -0.115345 -0.586063 0.014382 0.918284 -0.418623 -7.138203 0.091957 -0.510185 0.037926 -0.777389 0.176025 4.197360 
-0.638470 1.433762 -0.000000 0.000000 0.000013 -0.000013 0.000000 -0.000000 0.000000 0.025101 3.309411 3.936260 -0.251828 0.158051 0.002214 0.000004 -0.000004 -0.000012 -0.055230 -0.292895 0.030037 0.553046 -0.104004 -0.039874 -0.063480 -0.295808 -0.008990 -16.130040 8.173524 1.924674 -0.122834 -0.229411 -0.050920 -30.121189 33.756113 15.186285 0.231069 -0.001514 0.013458 -0.196001 -4.071644 -5.904025 -0.209512 -0.021411 0.262114 -0.259607 0.776074 1.209205 0.149708 -0.688047 0.023072 0.023217 0.001109 -0.116888 -0.223912 -0.555148 -0.049854 -0.182686 -0.001486 0.708136 0.205156 -0.190076 0.052833 0.000001 0.000006 -0.000001 -0.251258 -0.022817 -0.255908 0.560907 0.754092 2.922154 0.103196 -0.696667 -0.018948 -0.179230 -0.000498 -0.905710 -0.245133 -0.546127 0.049665 0.051217 -0.041271 -0.160321 0.205140 -0.190098 -0.052814 0.000000 0.000004 0.000000 0.419549 0.010961 -0.013086 0.160112 -0.256892 4.938332 0.408348 0.028529 -0.012770 -0.064188 1.797425 -5.152295 0.338811 0.285814 0.004795 -0.256094 1.081605 0.570031 0.358737 0.023693 0.007412 0.514310 -0.489850 -2.812095 0.459206 -0.112917 -0.207700 0.150475 -0.063880 0.135001 0.447731 -0.112091 0.231815 -0.161295 0.064104 0.129350 0.142448 0.104846 -0.170427 -2.618760 -1.057499 -6.419360 -0.083689 -0.238753 -0.034438 0.350831 -24.645284 9.096097 -0.020845 -0.180431 -0.000206 0.044927 -0.010707 -1.082159 0.133367 0.105497 0.177239 -0.654530 2.947693 -11.220436 -0.074872 -0.240788 0.040107 -5.743461 4.582913 11.511387 0.471273 -0.208616 0.012699 -0.033511 0.153552 0.741716 0.076379 -0.339505 0.013347 -0.215781 0.011723 5.769628 -0.035108 -0.320643 -0.000054 -0.098486 -0.198272 3.615421 -0.120659 -0.262204 -0.017643 -0.582872 0.214599 5.112505 -0.238823 -0.158587 -0.019394 -0.844368 0.095961 12.382887 -0.151660 0.098344 -0.011572 -0.548176 0.079641 8.104221 -0.395502 -0.065758 0.263022 -1.010348 -1.254434 0.272574 0.297928 -0.399193 0.055021 2.631511 -0.724308 2.273833 -0.175741 -0.570801 0.016792 -0.183211 -0.005307 -2.216949 0.111534 -0.507633 -0.007184 -0.815367 0.047155 1.009759 -0.378572 -0.062768 -0.287525 1.256048 -1.256493 2.286424 0.318955 -0.382331 -0.056872 -0.979194 -0.389421 2.213816 -0.115345 -0.586063 0.014382 0.905979 -0.412074 -7.039724 0.091957 -0.510185 0.037926 -0.747424 0.171230 4.056219 
-0.638470 1.433856 -0.000000 0.000000 0.000013 -0.000013 0.000000 -0.000000 0.000000 0.020061 3.355673 3.971612 -0.251828 0.158051 0.002214 0.000003 -0.000004 -0.000012 -0.055230 -0.292895 0.030037 0.915316 -0.172170 -0.065250 -0.063480 -0.295807 -0.008990 -15.871072 8.045815 1.887173 -0.122834 -0.229411 -0.050920 -30.240468 33.841504 15.269544 0.231065 -0.001557 0.013519 -0.193788 -4.106334 -5.829647 -0.209495 -0.021159 0.262082 -0.248076 0.771809 1.151594 0.149708 -0.688047 0.023072 0.011842 0.000571 -0.059624 -0.223912 -0.555148 -0.049854 -0.182582 -0.001483 0.707735 0.205156 -0.190076 0.052833 0.000001 0.000004 -0.000001 -0.251325 -0.022547 -0.255933 0.544358 0.759978 2.839398 0.103196 -0.696667 -0.018948 -0.171209 -0.000538 -0.865132 -0.245133 -0.546127 0.049665 0.044291 -0.044835 -0.218035 0.205140 -0.190098 -0.052814 0.000000 0.000004 0.000000 0.419549 0.010961 -0.013086 0.161541 -0.256486 4.984769 0.408348 0.028529 -0.012770 -0.060516 1.789700 -5.420109 0.338811 0.285814 0.004795 -0.255894 1.043115 0.968180 0.358737 0.023694 0.007412 0.579733 -0.468731 -3.108090 0.459206 -0.112917 -0.207700 0.150993 -0.064075 0.135427 0.447730 -0.112091 0.231815 -0.161319 0.064091 0.129396 0.142448 0.104846 -0.170427 -2.885484 -1.132731 -6.284009 -0.083689 -0.238753 -0.034438 0.632785 -24.424898 8.809615 -0.020845 -0.180431 -0.000206 0.052112 -0.010859 -1.400569 0.133367 0.105498 0.177239 -0.337220 2.952022 -10.984949 -0.074872 -0.240788 0.040107 -5.931040 4.534936 11.434891 0.471273 -0.208616 0.012699 -0.057898 0.181386 0.558080 0.076379 -0.339505 0.013347 -0.209546 0.011690 5.603228 -0.035108 -0.320643 -0.000054 -0.099970 -0.201518 3.673701 -0.120658 -0.262204 -0.017643 -0.590528 0.217097 5.174444 -0.238823 -0.158587 -0.019394 -0.851009 0.094075 12.498006 -0.151660 0.098344 -0.011572 -0.598696 0.083037 8.844430 -0.395767 -0.063041 0.263280 -1.017458 -1.217557 -0.183085 0.297928 -0.399193 0.055021 2.643884 -0.708192 2.617932 -0.175741 -0.570802 0.016792 -0.199761 -0.005439 -2.417126 0.111535 -0.507633 -0.007184 -0.815382 0.047189 1.007204 -0.379194 -0.060098 -0.287277 1.292877 -1.198126 1.723850 0.318955 -0.382331 -0.056872 -1.037636 -0.415749 2.567562 -0.115345 -0.586063 0.014382 0.901168 -0.409522 -7.001238 0.091957 -0.510185 0.037926 -0.722085 0.167123 3.936892 
